<mxfile host="app.diagrams.net" agent="Mozilla/5.0 (Windows NT 10.0; Win64; x64; rv:136.0) Gecko/20100101 Firefox/136.0" version="26.1.1">
  <diagram name="Page-1" id="HNcl8PtCo3nHv7qVRh9U">
    <mxGraphModel dx="819" dy="1526" grid="1" gridSize="10" guides="1" tooltips="1" connect="1" arrows="1" fold="1" page="1" pageScale="1" pageWidth="850" pageHeight="1100" math="0" shadow="0">
      <root>
        <mxCell id="0" />
        <mxCell id="1" parent="0" />
        <mxCell id="VRQ2WGgyhz1gLHJCunc8-3" style="edgeStyle=orthogonalEdgeStyle;rounded=0;orthogonalLoop=1;jettySize=auto;html=1;" edge="1" parent="1">
          <mxGeometry relative="1" as="geometry">
            <mxPoint x="560" y="160" as="targetPoint" />
            <mxPoint x="480" y="100" as="sourcePoint" />
            <Array as="points">
              <mxPoint x="560" y="100" />
            </Array>
          </mxGeometry>
        </mxCell>
        <mxCell id="VRQ2WGgyhz1gLHJCunc8-4" style="edgeStyle=orthogonalEdgeStyle;rounded=0;orthogonalLoop=1;jettySize=auto;html=1;" edge="1" parent="1">
          <mxGeometry relative="1" as="geometry">
            <mxPoint x="280.02857142857147" y="160.02857142857124" as="targetPoint" />
            <mxPoint x="360" y="100" as="sourcePoint" />
            <Array as="points">
              <mxPoint x="280" y="100" />
            </Array>
          </mxGeometry>
        </mxCell>
        <mxCell id="VRQ2WGgyhz1gLHJCunc8-6" style="edgeStyle=orthogonalEdgeStyle;rounded=0;orthogonalLoop=1;jettySize=auto;html=1;entryX=0.5;entryY=0;entryDx=0;entryDy=0;" edge="1" parent="1" source="VRQ2WGgyhz1gLHJCunc8-5" target="VRQ2WGgyhz1gLHJCunc8-25">
          <mxGeometry relative="1" as="geometry">
            <mxPoint x="420" y="80" as="targetPoint" />
          </mxGeometry>
        </mxCell>
        <mxCell id="VRQ2WGgyhz1gLHJCunc8-5" value="Find the min value" style="ellipse;whiteSpace=wrap;html=1;" vertex="1" parent="1">
          <mxGeometry x="360" y="-160" width="120" height="80" as="geometry" />
        </mxCell>
        <mxCell id="VRQ2WGgyhz1gLHJCunc8-13" style="edgeStyle=orthogonalEdgeStyle;rounded=0;orthogonalLoop=1;jettySize=auto;html=1;exitX=0;exitY=0.5;exitDx=0;exitDy=0;" edge="1" parent="1">
          <mxGeometry relative="1" as="geometry">
            <mxPoint x="440" y="239.5" as="targetPoint" />
            <mxPoint x="520" y="199.5" as="sourcePoint" />
          </mxGeometry>
        </mxCell>
        <mxCell id="VRQ2WGgyhz1gLHJCunc8-14" style="edgeStyle=orthogonalEdgeStyle;rounded=0;orthogonalLoop=1;jettySize=auto;html=1;exitX=1;exitY=0.5;exitDx=0;exitDy=0;" edge="1" parent="1">
          <mxGeometry relative="1" as="geometry">
            <mxPoint x="680" y="239.5" as="targetPoint" />
            <mxPoint x="600" y="199.5" as="sourcePoint" />
          </mxGeometry>
        </mxCell>
        <mxCell id="VRQ2WGgyhz1gLHJCunc8-8" value="num2&amp;lt;=num3" style="rhombus;whiteSpace=wrap;html=1;" vertex="1" parent="1">
          <mxGeometry x="510" y="160" width="100" height="80" as="geometry" />
        </mxCell>
        <mxCell id="VRQ2WGgyhz1gLHJCunc8-15" value="&lt;div&gt;True&lt;/div&gt;" style="text;html=1;align=center;verticalAlign=middle;resizable=0;points=[];autosize=1;strokeColor=none;fillColor=none;" vertex="1" parent="1">
          <mxGeometry x="255" y="60" width="50" height="30" as="geometry" />
        </mxCell>
        <mxCell id="VRQ2WGgyhz1gLHJCunc8-18" value="output: num2 is the smallest number" style="shape=parallelogram;perimeter=parallelogramPerimeter;whiteSpace=wrap;html=1;fixedSize=1;" vertex="1" parent="1">
          <mxGeometry x="370" y="240" width="135" height="60" as="geometry" />
        </mxCell>
        <mxCell id="VRQ2WGgyhz1gLHJCunc8-19" value="output: num3 is the smallest number" style="shape=parallelogram;perimeter=parallelogramPerimeter;whiteSpace=wrap;html=1;fixedSize=1;" vertex="1" parent="1">
          <mxGeometry x="610" y="240" width="135" height="60" as="geometry" />
        </mxCell>
        <mxCell id="VRQ2WGgyhz1gLHJCunc8-20" value="True" style="text;html=1;align=center;verticalAlign=middle;resizable=0;points=[];autosize=1;strokeColor=none;fillColor=none;" vertex="1" parent="1">
          <mxGeometry x="415" y="168" width="50" height="30" as="geometry" />
        </mxCell>
        <mxCell id="VRQ2WGgyhz1gLHJCunc8-21" value="False" style="text;html=1;align=center;verticalAlign=middle;resizable=0;points=[];autosize=1;strokeColor=none;fillColor=none;" vertex="1" parent="1">
          <mxGeometry x="655" y="158" width="50" height="30" as="geometry" />
        </mxCell>
        <mxCell id="VRQ2WGgyhz1gLHJCunc8-22" value="Input: num1, num2, num3" style="shape=parallelogram;perimeter=parallelogramPerimeter;whiteSpace=wrap;html=1;fixedSize=1;" vertex="1" parent="1">
          <mxGeometry x="340" y="-40" width="170" height="60" as="geometry" />
        </mxCell>
        <mxCell id="VRQ2WGgyhz1gLHJCunc8-25" value="num1&amp;lt;=num2" style="rhombus;whiteSpace=wrap;html=1;" vertex="1" parent="1">
          <mxGeometry x="360" y="60" width="120" height="80" as="geometry" />
        </mxCell>
        <mxCell id="VRQ2WGgyhz1gLHJCunc8-29" style="edgeStyle=orthogonalEdgeStyle;rounded=0;orthogonalLoop=1;jettySize=auto;html=1;exitX=0;exitY=0.5;exitDx=0;exitDy=0;" edge="1" parent="1">
          <mxGeometry relative="1" as="geometry">
            <mxPoint x="190" y="238" as="targetPoint" />
            <mxPoint x="230" y="198" as="sourcePoint" />
          </mxGeometry>
        </mxCell>
        <mxCell id="VRQ2WGgyhz1gLHJCunc8-26" value="num1&amp;lt;=num3" style="rhombus;whiteSpace=wrap;html=1;" vertex="1" parent="1">
          <mxGeometry x="230" y="160" width="100" height="80" as="geometry" />
        </mxCell>
        <mxCell id="VRQ2WGgyhz1gLHJCunc8-27" value="False" style="text;html=1;align=center;verticalAlign=middle;resizable=0;points=[];autosize=1;strokeColor=none;fillColor=none;" vertex="1" parent="1">
          <mxGeometry x="530" y="60" width="50" height="30" as="geometry" />
        </mxCell>
        <mxCell id="VRQ2WGgyhz1gLHJCunc8-30" value="output: {num1} is the smallest number" style="shape=parallelogram;perimeter=parallelogramPerimeter;whiteSpace=wrap;html=1;fixedSize=1;" vertex="1" parent="1">
          <mxGeometry x="110" y="240" width="145" height="60" as="geometry" />
        </mxCell>
      </root>
    </mxGraphModel>
  </diagram>
</mxfile>
